<svg fill="none" height="62" viewBox="0 0 62 62" width="62" xmlns="http://www.w3.org/2000/svg"><path d="m62.0208 12.3383c-.1953-.5742-.6901-.9796-1.2913-1.0576l-4.5689-.596c.7057-1.30843.5075-2.98009-.5956-4.08318-.6523-.65277-1.5193-1.01179-2.4417-1.01179-.001 0-.0019 0-.0024 0-.5406.00047-1.0614.12487-1.5321.35855l-.596-4.57129c-.0785-.601685-.4839-1.096466-1.0577-1.2918246-.5742-.1948854-1.1972-.0501405-1.6262.3788906l-6.5136 6.513514c-.3576.35761-.5231.86895-.4427 1.36799l1.0539 6.55794-.3013.3023c-4.5368-3.4975-10.0674-5.3934-15.8903-5.3934-5.4724 0-10.7111 1.6754-15.1495 4.8456-.4087.2919-.5033.8595-.2114 1.2682.2918.4087.8595.5033 1.2682.2115 4.128-2.9489 9.0016-4.5075 14.0927-4.5075 5.4701 0 10.5224 1.8197 14.5857 4.884l-3.6901 3.7023c-3.0926-2.1546-6.8489-3.4204-10.8956-3.4204-10.537 0-19.10963 8.5726-19.10963 19.1101 0 10.5371 8.57263 19.1096 19.10963 19.1096 10.5371 0 19.1097-8.5725 19.1097-19.1096 0-4.0008-1.237-7.7169-3.3467-10.7892l3.6953-3.708c3.024 4.0486 4.8172 9.0669 4.8172 14.4972 0 13.3856-10.8899 24.2755-24.2755 24.2755s-24.27551-10.8899-24.27551-24.2755c0-5.9861 2.19719-11.7357 6.18714-16.1901.3349-.3737.30321-.9489-.07048-1.2838-.37416-.3349-.94888-.3032-1.28378.0705-4.28937 4.7884-6.651176 10.9689-6.651176 17.4034 0 6.97 2.714206 13.5228 7.642626 18.4512 4.92838 4.9284 11.48118 7.6426 18.45118 7.6426s13.5228-2.7142 18.4512-7.6426 7.6426-11.4812 7.6426-18.4512c0-5.7874-1.8736-11.2858-5.33-15.8065l.2309-.2318 6.5508 1.053c.0833.0132.1666.0198.2498.0198.4153 0 .8207-.1646 1.1187-.4626l1.3983-1.3982c.3552-.3553.3552-.9305 0-1.2857-.3553-.3548-.9305-.3548-1.2857 0l-1.3122 1.3121-5.1115-.8216 5.9483-5.9483 5.2487.6845-.7886.7885c-.3547.3553-.3547.9305 0 1.2857.3553.3548.9309.3548 1.2857 0l1.1305-1.1305c.4286-.429.5738-1.052.3784-1.6263zm-12.7687-10.24657.6849 5.24865-5.9487 5.94822-.8217-5.11144zm-5.7458 33.81447c0 9.5342-7.7567 17.2913-17.2914 17.2913s-17.29133-7.7571-17.29133-17.2913c0-9.5347 7.75663-17.2913 17.29133-17.2913 3.5458 0 6.8447 1.0728 9.591 2.9105l-3.7737 3.7865c-1.7271-.9526-3.7095-1.4966-5.8173-1.4966-6.6668 0-12.0904 5.4241-12.0904 12.0909 0 6.6663 5.4236 12.0905 12.0904 12.0905s12.0905-5.4242 12.0905-12.0905c0-2.052-.5156-3.9847-1.421-5.6791l3.7866-3.7993c1.7918 2.7241 2.8353 5.9813 2.8353 9.4784zm-18.9815 1.8216c.6523.6523 1.5198 1.0113 2.4422 1.0113h.0024c.9233-.0004 1.7909-.3609 2.4432-1.0151l1.2885-1.2927c-.2611 2.2445-2.1731 3.9923-4.4862 3.9923-2.4909 0-4.5173-2.0265-4.5173-4.5174 0-2.4086 1.8939-4.3825 4.2709-4.5107l-1.447 1.4517c-1.3424 1.3467-1.341 3.5358.0033 4.8806zm-4.6455-1.8216c0 3.4933 2.8423 6.3357 6.3356 6.3357s6.3357-2.842 6.3357-6.3357c0-.4148-.0416-.8193-.1183-1.2119l3.0993-3.1096c.6125 1.3145.956 2.7785.956 4.3215 0 5.664-4.6082 10.2722-10.2727 10.2722-5.6644 0-10.2721-4.6082-10.2721-10.2722 0-5.6644 4.6077-10.2726 10.2721-10.2726 1.6026 0 3.1196.3704 4.4724 1.0279l-3.0599 3.0699c-.4541-.1046-.9267-.1609-1.4125-.1609-3.4933 0-6.3356 2.842-6.3356 6.3357zm8.2457.534c-.3089.3099-.72.4806-1.157.4806-.0005 0-.001 0-.001 0-.437 0-.8476-.1698-1.1565-.4787-.6362-.6366-.6372-1.673-.0014-2.3107l26.1562-26.24278c.3089-.30983.7195-.4806 1.1566-.48107h.0014c.4366 0 .8472.17029 1.1561.47917.6366.63669.6376 1.67308.0014 2.31068z" fill="#4f86d9"/></svg>