<svg fill="none" height="62" viewBox="0 0 62 62" width="62" xmlns="http://www.w3.org/2000/svg"><g fill="#4f86d9" fill-opacity=".8"><path d="m52.6879 36.1102-.2873.155c-1.1603-1.4081-3.1706-1.9538-4.7021-1.1776-.0055.0027-.0109.0056-.0163.0084l-.6781.3651c-.8087-.6848-1.809-1.1034-2.8644-1.1987-1.0554-.0954-2.1145.1371-3.0329.6659l-3.6515 1.9859h-4.8591c-1.0521-.0014-2.0904-.2393-3.0382-.6961l-.6684-.3234c-1.9031-.9259-4.0252-1.3071-6.1315-1.1014s-4.1146.9903-5.8026 2.267c-.0158.0121-.0313.0242-.0461.0379l-1.6138 1.4366c-.6099.5417-1.3308.9435-2.1123 1.1774l-.9165-3.0087c-.0454-.1489-.1375-.2793-.2626-.372-.1251-.0926-.2767-.1426-.4324-.1426h-7.80482c-.10284 0-.2045.0218-.29827.064s-.17752.1039-.24569.1809c-.06818.0769-.11923.1675-.14979.2657s-.03993.2018-.02749.3038l2.60158 21.3319c.02148.1762.10669.3384.23956.4561.13287.1176.3042.1826.48168.1826h11.70664c.1135 0 .2255-.0266.3269-.0777s.1894-.1253.257-.2165c.0675-.0913.1128-.1971.1321-.309.0192-.1118.012-.2267-.0211-.3353l-1.5379-5.0465 4.7898-3.0273c.6409-.3546 1.3927-.4519 2.1028-.2721.015.0037.0301.0071.0454.0098l9.7431 1.7941c2.6478.4738 5.3777.0884 7.7908-1.1.0308-.0152.0605-.0326.0889-.0521l16.8518-11.5707c.1527-.1048.2596-.264.2988-.445.0393-.1809.0079-.3701-.0876-.5287-.6131-1.0213-1.5967-1.7666-2.7457-2.0808s-2.3749-.1731-3.4224.3941zm-4.3251.2698c.8858-.4436 2.0009-.08 2.7132.5997l-6.3904 3.4476-.3754.1977c-.2023-.5745-.498-1.1118-.8752-1.5901zm-6.5528-.1799c.0057-.0032.0121-.0064.0172-.0098.5724-.3308 1.223-.502 1.8841-.4958.661.0062 1.3083.1896 1.8743.5312l-3.2491 1.7493c-.6194-.4521-1.3261-.7702-2.0753-.934zm-34.79868 21.3206-2.42369-19.8787h6.44567l6.0608 19.8787zm34.00118-8.4076c-2.1217 1.0328-4.5164 1.3655-6.8392.9503l-9.7192-1.7897c-1.069-.264-2.1984-.1109-3.1587.428-.0112.0062-.0225.013-.0335.02l-4.4702 2.826-3.1848-10.4445c.9821-.2959 1.8878-.8025 2.654-1.4842l1.5911-1.4168c1.4741-1.1083 3.2255-1.7881 5.0612-1.9647s3.6846.1569 5.3429.9638l.6683.3234c1.1452.5519 2.3998.8394 3.671.8411h6.4815c.9526.0013 1.8749.3343 2.6085.9418.7337.6075 1.2329 1.4515 1.4119 2.387l-4.6979-.2125c-1.7078-.0767-3.4191.0023-5.1126.2363-.1893.0281-.36.1298-.4748.2831-.1148.1532-.1644.3456-.1382.5352.0263.1897.1264.3613.2785.4776s.344.1678.5339.1434c1.6056-.2219 3.2282-.2968 4.8475-.2238l5.5286.2501c.011 0 .0221.0007.033.0007.1927 0 .3775-.0765.5137-.2128.1363-.1363.2128-.3211.2128-.5138 0-.1175-.0049-.234-.0121-.3499l.7582-.3996 8.0102-4.3202c.6152-.3331 1.3232-.4537 2.0139-.343.6908.1108 1.3256.4466 1.8059.9553z"/><path d="m9.32108 54.515c0 .4524.13415.8946.3855 1.2708s.60862.6694 1.02662.8425c.4179.1731.8779.2184 1.3216.1302.4437-.0883.8513-.3062 1.1712-.6261s.5378-.7275.626-1.1712c.0883-.4437.043-.9036-.1301-1.3216-.1732-.418-.4664-.7752-.8425-1.0266-.3762-.2513-.8184-.3855-1.2709-.3855-.6064.0007-1.1879.2419-1.6167.6707-.42884.4289-.67005 1.0103-.67072 1.6168zm2.28742-.8344c.1651 0 .3264.049.4636.1406.1372.0917.2441.222.3073.3745.0631.1524.0796.3202.0474.482-.0322.1619-.1116.3105-.2283.4272s-.2653.1962-.4272.2284c-.1618.0322-.3296.0156-.4821-.0475-.1524-.0632-.2827-.1701-.3744-.3073s-.1406-.2985-.1406-.4635c.0004-.2212.0884-.4331.2448-.5895.1564-.1563.3684-.2443.5895-.2446z"/><path d="m36.5245 10.9354v-2.3943c-.0068-1.4582-.5909-2.85435-1.6244-3.88304-1.0335-1.0287-2.4324-1.60621-3.8906-1.60621s-2.8571.57751-3.8906 1.60621c-1.0335 1.02869-1.6176 2.42484-1.6244 3.88304v2.3943c.0068 1.4582.5909 2.8543 1.6244 3.883s2.4324 1.6062 3.8906 1.6062 2.8571-.5775 3.8906-1.6062 1.6176-2.4248 1.6244-3.883zm-9.5769 0v-2.3943c.0059-1.07344.4364-2.10092 1.1975-2.8579.7611-.75697 1.7909-1.18189 2.8644-1.18189s2.1033.42492 2.8644 1.18189c.7611.75698 1.1917 1.78446 1.1975 2.8579v2.3943c-.0058 1.0734-.4364 2.1009-1.1975 2.8579-.7611.7569-1.7909 1.1819-2.8644 1.1819s-2.1033-.425-2.8644-1.1819c-.7611-.757-1.1916-1.7845-1.1975-2.8579z"/><path d="m22.12 31.4148h17.7792c.1927 0 .3775-.0766.5137-.2129.1363-.1362.2128-.321.2128-.5137v-1.6677h12.1712c.1927 0 .3775-.0766.5137-.2128.1363-.1363.2128-.3211.2128-.5138v-4.7159c-.0008-1.3837-.5283-2.7153-1.4753-3.7242-.9471-1.0089-2.2427-1.6194-3.6237-1.7075-.3875-.0285-.5867.2168-.7482.4139-.3215.3927-.7283.7069-1.1896.9186-.4612.2116-.9647.3152-1.4721.3028-.5074-.0123-1.0052-.1404-1.4556-.3743-.4504-.234-.8414-.5677-1.1433-.9756-.0693-.0939-.1603-.1697-.2652-.221-.1048-.0513-.2205-.0765-.3372-.0736-.9438.0212-1.8655.29-2.6727.7797-.5329-.6197-1.1847-1.1261-1.9169-1.4892-.7322-.3632-1.5298-.5757-2.3456-.625-.3754-.0152-.5652.2126-.7492.4359-.3771.461-.8545.8297-1.3958 1.0781-.5413.2485-1.1321.3701-1.7275.3555-.5954-.0145-1.1796-.1648-1.7081-.4394-.5285-.2745-.9874-.6661-1.3416-1.1449-.0692-.094-.1602-.1699-.2651-.2212s-.2206-.0764-.3373-.0733c-1.5934.0368-3.1086.6978-4.2195 1.8406-.0918.0939-.1789.1911-.2638.2898-.7502-.4568-1.6005-.7237-2.4772-.7777-.3862-.0284-.5868.2169-.7482.4139-.3215.3928-.7283.7069-1.1895.9186-.4613.2117-.9648.3153-1.4721.3029-.5074-.0124-1.0052-.1404-1.4556-.3744-.4504-.2339-.8414-.5676-1.1433-.9756-.0694-.0937-.1604-.1695-.2653-.2207-.1048-.0513-.2204-.0766-.3371-.0739-1.4192.0361-2.7681.6252-3.7592 1.6417-.99106 1.0165-1.54583 2.3799-1.54604 3.7995v4.7159c0 .1927.07655.3775.21281.5138.13626.1362.32106.2128.51375.2128h12.19028v1.6677c0 .1927.0765.3775.2128.5137.1363.1363.3211.2129.5138.2129zm19.3829-11.8016c.448.5084.9987.916 1.6159 1.1957.6172.2798 1.2867.4254 1.9643.4271.6776.0018 1.3479-.1403 1.9665-.4168s1.1715-.6812 1.6221-1.1872c.9448.1425 1.8072.619 2.4308 1.343.6235.724.9669 1.6475.9678 2.603v3.9894h-11.4446v-4.6611c.0008-.9675-.2294-1.9213-.6714-2.782.4748-.2768 1.0023-.451 1.5486-.5111zm-14.4627-1.3448c.5024.5816 1.1238 1.0485 1.8222 1.3691.6985.3206 1.4576.4875 2.2261.4893.7685.0019 1.5284-.1614 2.2283-.4787.7-.3173 1.3236-.7812 1.8287-1.3604 1.1157.1543 2.1379.7068 2.8781 1.5557.7402.8488 1.1485 1.9367 1.1495 3.0629v7.0553h-16.3266v-7.0553c.0072-1.1532.4387-2.2634 1.2122-3.1188s1.8348-1.3962 2.9815-1.5191zm-17.11051 9.299v-3.9894c.00614-.9789.36951-1.9219 1.02171-2.6519.6523-.7299 1.5487-1.1966 2.5208-1.3124.4479.5082.9986.9157 1.6157 1.1953s1.2865.4251 1.964.4269c.6775.0017 1.3476-.1404 1.9661-.4169s1.1713-.6811 1.6218-1.187c.5003.0748.9816.2446 1.418.5003-.438.859-.6658 1.8098-.6644 2.774v4.6611z"/><path d="m49.9335 13.0998v-2.0958c0-1.30426-.5181-2.55513-1.4404-3.47741s-2.1732-1.44041-3.4775-1.44041-2.5551.51813-3.4774 1.44041-1.4404 2.17315-1.4404 3.47741v2.0958c0 1.3043.5181 2.5552 1.4404 3.4775.9223.9222 2.1731 1.4404 3.4774 1.4404s2.5552-.5182 3.4775-1.4404c.9223-.9223 1.4404-2.1732 1.4404-3.4775zm-8.3826 0v-2.0958c0-.9189.365-1.80013 1.0148-2.4499.6498-.64976 1.531-1.01479 2.4499-1.01479s1.8002.36503 2.45 1.01479c.6497.64977 1.0148 1.531 1.0148 2.4499v2.0958c0 .9189-.3651 1.8002-1.0148 2.4499-.6498.6498-1.5311 1.0148-2.45 1.0148s-1.8001-.365-2.4499-1.0148c-.6498-.6497-1.0148-1.531-1.0148-2.4499z"/><path d="m21.9022 13.0998v-2.0958c0-.6458-.1272-1.28528-.3743-1.88194-.2472-.59666-.6094-1.13881-1.0661-1.59547-.4567-.45667-.9988-.81891-1.5955-1.06606-.5966-.24714-1.2361-.37435-1.8819-.37435-.6459 0-1.2854.12721-1.882.37435-.5967.24715-1.1388.60939-1.5955 1.06606-.4567.45666-.8189.99881-1.0661 1.59547-.2471.59666-.3743 1.23614-.3743 1.88194v2.0958c0 .6458.1272 1.2853.3743 1.882.2472.5967.6094 1.1388 1.0661 1.5955.4567.4566.9988.8189 1.5955 1.066.5966.2472 1.2361.3744 1.882.3744.6458 0 1.2853-.1272 1.8819-.3744.5967-.2471 1.1388-.6094 1.5955-1.066.4567-.4567.8189-.9988 1.0661-1.5955.2471-.5967.3743-1.2362.3743-1.882zm-8.3826 0v-2.0958c0-.9189.3651-1.80013 1.0148-2.4499.6498-.64976 1.5311-1.01479 2.45-1.01479s1.8001.36503 2.4499 1.01479c.6498.64977 1.0148 1.531 1.0148 2.4499v2.0958c0 .455-.0896.9055-.2637 1.3259-.1742.4204-.4294.8023-.7511 1.124-.3217.3218-.7037.577-1.124.7511-.4204.1741-.8709.2637-1.3259.2637s-.9056-.0896-1.3259-.2637c-.4204-.1741-.8024-.4293-1.1241-.7511-.3217-.3217-.5769-.7036-.751-1.124-.1742-.4204-.2638-.8709-.2638-1.3259z"/></g></svg>